master_4.ufo
<glyph name="exclam" format="2">
  <advance width="36"/>
  <unicode hex="0021"/>
  <outline>
    <contour>
      <point x="17" y="450" type="line"/>
      <point x="19" y="450" type="line"/>
      <point x="19" y="1600" type="line"/>
      <point x="17" y="1600" type="line"/>
    </contour>
    <component base="period"/>
  </outline>
</glyph>
<glyph name="ampersand" format="2">
  <advance width="326"/>
  <unicode hex="0026"/>
  <outline>
    <contour>
      <point x="324" y="0" type="line"/>
      <point x="326" y="0" type="line"/>
      <point x="241" y="827" type="line"/>
      <point x="229" y="827" type="line"/>
      <point x="186" y="462" type="line"/>
      <point x="12" y="462" type="line"/>
      <point x="12" y="600" type="line"/>
      <point x="100" y="600" type="line"/>
      <point x="100" y="1071" type="line"/>
      <point x="125" y="1138" type="line"/>
      <point x="194" y="1138" type="line"/>
      <point x="194" y="900" type="line"/>
      <point x="196" y="900" type="line"/>
      <point x="196" y="1600" type="line"/>
      <point x="148" y="1600" type="line"/>
      <point x="98" y="1165" type="line"/>
      <point x="98" y="902" type="line"/>
      <point x="10" y="902" type="line"/>
      <point x="10" y="0" type="line"/>
      <point x="106" y="0" type="line"/>
      <point x="195" y="494" type="line"/>
      <point x="215" y="494" type="line"/>
    </contour>
  </outline>
</glyph>
<glyph name="zero" format="2">
  <advance width="138"/>
  <unicode hex="0030"/>
  <outline>
    <contour>
      <point x="35" y="0" type="curve" smooth="yes"/>
      <point x="103" y="0" type="line" smooth="yes"/>
      <point x="109" y="0"/>
      <point x="113" y="4"/>
      <point x="113" y="10" type="curve" smooth="yes"/>
      <point x="113" y="1590" type="line" smooth="yes"/>
      <point x="113" y="1596"/>
      <point x="109" y="1600"/>
      <point x="103" y="1600" type="curve" smooth="yes"/>
      <point x="35" y="1600" type="line" smooth="yes"/>
      <point x="29" y="1600"/>
      <point x="25" y="1596"/>
      <point x="25" y="1590" type="curve" smooth="yes"/>
      <point x="25" y="10" type="line" smooth="yes"/>
      <point x="25" y="4"/>
      <point x="29" y="0"/>
    </contour>
    <contour>
      <point x="27" y="412" type="curve" smooth="yes"/>
      <point x="27" y="1188" type="line" smooth="yes"/>
      <point x="27" y="1194"/>
      <point x="31" y="1198"/>
      <point x="37" y="1198" type="curve" smooth="yes"/>
      <point x="101" y="1198" type="line" smooth="yes"/>
      <point x="107" y="1198"/>
      <point x="111" y="1194"/>
      <point x="111" y="1188" type="curve" smooth="yes"/>
      <point x="111" y="412" type="line" smooth="yes"/>
      <point x="111" y="406"/>
      <point x="107" y="402"/>
      <point x="101" y="402" type="curve" smooth="yes"/>
      <point x="37" y="402" type="line" smooth="yes"/>
      <point x="31" y="402"/>
      <point x="27" y="406"/>
    </contour>
  </outline>
</glyph>
<glyph name="two" format="2">
  <advance width="137"/>
  <unicode hex="0032"/>
  <outline>
    <contour>
      <point x="39" y="0" type="curve" smooth="yes"/>
      <point x="104" y="0" type="line"/>
      <point x="104" y="402" type="line"/>
      <point x="40" y="402" type="line" smooth="yes"/>
      <point x="34" y="402"/>
      <point x="31" y="405"/>
      <point x="31" y="411" type="curve" smooth="yes"/>
      <point x="31" y="590" type="line" smooth="yes"/>
      <point x="31" y="596"/>
      <point x="34" y="599"/>
      <point x="40" y="599" type="curve" smooth="yes"/>
      <point x="87" y="599" type="line" smooth="yes"/>
      <point x="93" y="599"/>
      <point x="97" y="603"/>
      <point x="97" y="609" type="curve" smooth="yes"/>
      <point x="97" y="1590" type="line" smooth="yes"/>
      <point x="97" y="1596"/>
      <point x="93" y="1600"/>
      <point x="87" y="1600" type="curve" smooth="yes"/>
      <point x="42" y="1600" type="line" smooth="yes"/>
      <point x="36" y="1600"/>
      <point x="32" y="1596"/>
      <point x="32" y="1590" type="curve" smooth="yes"/>
      <point x="32" y="1080" type="line"/>
      <point x="34" y="1080" type="line"/>
      <point x="34" y="1189" type="line" smooth="yes"/>
      <point x="34" y="1195"/>
      <point x="37" y="1198"/>
      <point x="43" y="1198" type="curve" smooth="yes"/>
      <point x="86" y="1198" type="line" smooth="yes"/>
      <point x="92" y="1198"/>
      <point x="95" y="1195"/>
      <point x="95" y="1189" type="curve" smooth="yes"/>
      <point x="95" y="1010" type="line" smooth="yes"/>
      <point x="95" y="1004"/>
      <point x="92" y="1001"/>
      <point x="86" y="1001" type="curve" smooth="yes"/>
      <point x="39" y="1001" type="line" smooth="yes"/>
      <point x="33" y="1001"/>
      <point x="29" y="997"/>
      <point x="29" y="991" type="curve" smooth="yes"/>
      <point x="29" y="10" type="line" smooth="yes"/>
      <point x="29" y="4"/>
      <point x="33" y="0"/>
    </contour>
  </outline>
</glyph>
<glyph name="three" format="2">
  <advance width="160"/>
  <unicode hex="0033"/>
  <outline>
    <contour>
      <point x="47" y="0" type="curve" smooth="yes"/>
      <point x="115" y="0" type="line" smooth="yes"/>
      <point x="121" y="0"/>
      <point x="125" y="4"/>
      <point x="125" y="10" type="curve" smooth="yes"/>
      <point x="125" y="989" type="line" smooth="yes"/>
      <point x="125" y="995"/>
      <point x="121" y="999"/>
      <point x="115" y="999" type="curve" smooth="yes"/>
      <point x="97" y="999" type="line"/>
      <point x="119" y="1091" type="line" smooth="yes"/>
      <point x="120" y="1096"/>
      <point x="120" y="1099"/>
      <point x="120" y="1103" type="curve" smooth="yes"/>
      <point x="120" y="1590" type="line" smooth="yes"/>
      <point x="120" y="1596"/>
      <point x="116" y="1600"/>
      <point x="110" y="1600" type="curve" smooth="yes"/>
      <point x="58" y="1600" type="line" smooth="yes"/>
      <point x="52" y="1600"/>
      <point x="48" y="1596"/>
      <point x="48" y="1590" type="curve" smooth="yes"/>
      <point x="48" y="1080" type="line"/>
      <point x="50" y="1080" type="line"/>
      <point x="50" y="1188" type="line" smooth="yes"/>
      <point x="50" y="1194"/>
      <point x="54" y="1198"/>
      <point x="60" y="1198" type="curve" smooth="yes"/>
      <point x="108" y="1198" type="line" smooth="yes"/>
      <point x="114" y="1198"/>
      <point x="118" y="1194"/>
      <point x="118" y="1188" type="curve" smooth="yes"/>
      <point x="118" y="1103" type="line" smooth="yes"/>
      <point x="118" y="1099"/>
      <point x="118" y="1096"/>
      <point x="117" y="1091" type="curve" smooth="yes"/>
      <point x="95" y="999" type="line"/>
      <point x="70" y="999" type="line"/>
      <point x="70" y="597" type="line"/>
      <point x="113" y="597" type="line" smooth="yes"/>
      <point x="119" y="597"/>
      <point x="123" y="593"/>
      <point x="123" y="587" type="curve" smooth="yes"/>
      <point x="123" y="412" type="line" smooth="yes"/>
      <point x="123" y="406"/>
      <point x="119" y="402"/>
      <point x="113" y="402" type="curve" smooth="yes"/>
      <point x="49" y="402" type="line" smooth="yes"/>
      <point x="43" y="402"/>
      <point x="39" y="406"/>
      <point x="39" y="412" type="curve" smooth="yes"/>
      <point x="39" y="578" type="line"/>
      <point x="37" y="578" type="line"/>
      <point x="37" y="10" type="line" smooth="yes"/>
      <point x="37" y="4"/>
      <point x="41" y="0"/>
    </contour>
  </outline>
</glyph>
<glyph name="four" format="2">
  <advance width="128"/>
  <unicode hex="0034"/>
  <outline>
    <contour>
      <point x="85" y="0" type="line"/>
      <point x="87" y="0" type="line"/>
      <point x="87" y="599" type="line"/>
      <point x="116" y="599" type="line"/>
      <point x="116" y="1001" type="line"/>
      <point x="87" y="1001" type="line"/>
      <point x="87" y="1600" type="line"/>
      <point x="85" y="1600" type="line"/>
      <point x="85" y="1001" type="line"/>
      <point x="26" y="1001" type="line" smooth="yes"/>
      <point x="20" y="1001"/>
      <point x="16" y="1005"/>
      <point x="16" y="1011" type="curve" smooth="yes"/>
      <point x="16" y="1059" type="line"/>
      <point x="36" y="1600" type="line"/>
      <point x="34" y="1600" type="line"/>
      <point x="14" y="1059" type="line"/>
      <point x="14" y="609" type="line" smooth="yes"/>
      <point x="14" y="603"/>
      <point x="18" y="599"/>
      <point x="24" y="599" type="curve" smooth="yes"/>
      <point x="85" y="599" type="line"/>
    </contour>
  </outline>
</glyph>
<glyph name="six" format="2">
  <advance width="133"/>
  <unicode hex="0036"/>
  <outline>
    <contour>
      <point x="35" y="0" type="curve" smooth="yes"/>
      <point x="110" y="0" type="line" smooth="yes"/>
      <point x="116" y="0"/>
      <point x="120" y="4"/>
      <point x="120" y="10" type="curve" smooth="yes"/>
      <point x="120" y="991" type="line" smooth="yes"/>
      <point x="120" y="997"/>
      <point x="116" y="1001"/>
      <point x="110" y="1001" type="curve" smooth="yes"/>
      <point x="27" y="1001" type="line"/>
      <point x="27" y="1188" type="line" smooth="yes"/>
      <point x="27" y="1194"/>
      <point x="31" y="1198"/>
      <point x="37" y="1198" type="curve" smooth="yes"/>
      <point x="108" y="1198" type="line" smooth="yes"/>
      <point x="114" y="1198"/>
      <point x="118" y="1194"/>
      <point x="118" y="1188" type="curve" smooth="yes"/>
      <point x="118" y="1080" type="line"/>
      <point x="120" y="1080" type="line"/>
      <point x="120" y="1590" type="line" smooth="yes"/>
      <point x="120" y="1596"/>
      <point x="116" y="1600"/>
      <point x="110" y="1600" type="curve" smooth="yes"/>
      <point x="35" y="1600" type="line" smooth="yes"/>
      <point x="29" y="1600"/>
      <point x="25" y="1596"/>
      <point x="25" y="1590" type="curve" smooth="yes"/>
      <point x="25" y="10" type="line" smooth="yes"/>
      <point x="25" y="4"/>
      <point x="29" y="0"/>
    </contour>
    <contour>
      <point x="118" y="589" type="curve" smooth="yes"/>
      <point x="118" y="412" type="line" smooth="yes"/>
      <point x="118" y="406"/>
      <point x="114" y="402"/>
      <point x="108" y="402" type="curve" smooth="yes"/>
      <point x="37" y="402" type="line" smooth="yes"/>
      <point x="31" y="402"/>
      <point x="27" y="406"/>
      <point x="27" y="412" type="curve" smooth="yes"/>
      <point x="27" y="599" type="line"/>
      <point x="108" y="599" type="line" smooth="yes"/>
      <point x="114" y="599"/>
      <point x="118" y="595"/>
    </contour>
  </outline>
</glyph>
<glyph name="eight" format="2">
  <advance width="166"/>
  <unicode hex="0038"/>
  <outline>
    <contour>
      <point x="35" y="0" type="curve" smooth="yes"/>
      <point x="113" y="0" type="line" smooth="yes"/>
      <point x="119" y="0"/>
      <point x="123" y="4"/>
      <point x="123" y="10" type="curve" smooth="yes"/>
      <point x="123" y="747" type="line" smooth="yes"/>
      <point x="123" y="752"/>
      <point x="122" y="755"/>
      <point x="119" y="759" type="curve" smooth="yes"/>
      <point x="87" y="799" type="line"/>
      <point x="87" y="799" type="line"/>
      <point x="110" y="799" type="line" smooth="yes"/>
      <point x="116" y="799"/>
      <point x="120" y="803"/>
      <point x="120" y="809" type="curve" smooth="yes"/>
      <point x="120" y="1590" type="line" smooth="yes"/>
      <point x="120" y="1596"/>
      <point x="116" y="1600"/>
      <point x="110" y="1600" type="curve" smooth="yes"/>
      <point x="38" y="1600" type="line" smooth="yes"/>
      <point x="32" y="1600"/>
      <point x="28" y="1596"/>
      <point x="28" y="1590" type="curve" smooth="yes"/>
      <point x="28" y="850" type="line" smooth="yes"/>
      <point x="28" y="845"/>
      <point x="29" y="842"/>
      <point x="32" y="838" type="curve" smooth="yes"/>
      <point x="61" y="801" type="line"/>
      <point x="61" y="801" type="line"/>
      <point x="35" y="801" type="line" smooth="yes"/>
      <point x="29" y="801"/>
      <point x="25" y="797"/>
      <point x="25" y="791" type="curve" smooth="yes"/>
      <point x="25" y="10" type="line" smooth="yes"/>
      <point x="25" y="4"/>
      <point x="29" y="0"/>
    </contour>
    <contour>
      <point x="27" y="412" type="curve" smooth="yes"/>
      <point x="27" y="589" type="line" smooth="yes"/>
      <point x="27" y="595"/>
      <point x="31" y="599"/>
      <point x="37" y="599" type="curve" smooth="yes"/>
      <point x="85" y="599" type="line"/>
      <point x="117" y="558" type="line" smooth="yes"/>
      <point x="120" y="554"/>
      <point x="121" y="551"/>
      <point x="121" y="546" type="curve" smooth="yes"/>
      <point x="121" y="412" type="line" smooth="yes"/>
      <point x="121" y="406"/>
      <point x="117" y="402"/>
      <point x="111" y="402" type="curve" smooth="yes"/>
      <point x="37" y="402" type="line" smooth="yes"/>
      <point x="31" y="402"/>
      <point x="27" y="406"/>
    </contour>
    <contour>
      <point x="63" y="1001" type="line"/>
      <point x="34" y="1039" type="line" smooth="yes"/>
      <point x="31" y="1043"/>
      <point x="30" y="1046"/>
      <point x="30" y="1051" type="curve" smooth="yes"/>
      <point x="30" y="1188" type="line" smooth="yes"/>
      <point x="30" y="1194"/>
      <point x="34" y="1198"/>
      <point x="40" y="1198" type="curve" smooth="yes"/>
      <point x="108" y="1198" type="line" smooth="yes"/>
      <point x="114" y="1198"/>
      <point x="118" y="1194"/>
      <point x="118" y="1188" type="curve" smooth="yes"/>
      <point x="118" y="1011" type="line" smooth="yes"/>
      <point x="118" y="1005"/>
      <point x="114" y="1001"/>
      <point x="108" y="1001" type="curve" smooth="yes"/>
    </contour>
  </outline>
</glyph>
<glyph name="question" format="2">
  <advance width="166"/>
  <unicode hex="003F"/>
  <outline>
    <contour>
      <point x="48" y="429" type="line"/>
      <point x="51" y="429" type="line"/>
      <point x="119" y="813" type="line"/>
      <point x="119" y="1600" type="line"/>
      <point x="32" y="1600" type="line"/>
      <point x="32" y="1048" type="line"/>
      <point x="34" y="1048" type="line"/>
      <point x="34" y="1198" type="line"/>
      <point x="117" y="1198" type="line"/>
      <point x="117" y="964" type="line"/>
      <point x="66" y="831" type="line"/>
      <point x="48" y="831" type="line"/>
    </contour>
    <component base="period" xOffset="58"/>
  </outline>
</glyph>
<glyph name="R" format="2">
  <advance width="161"/>
  <unicode hex="0052"/>
  <anchor x="83" y="0" name="bottom"/>
  <anchor x="83" y="1600" name="top"/>
  <outline>
    <contour>
      <point x="35" y="0" type="line"/>
      <point x="37" y="0" type="line"/>
      <point x="37" y="402" type="line"/>
      <point x="80" y="402" type="line" smooth="yes"/>
      <point x="84" y="402"/>
      <point x="87" y="404"/>
      <point x="87" y="409" type="curve" smooth="yes"/>
      <point x="126" y="861" type="line" smooth="yes"/>
      <point x="126" y="864"/>
      <point x="127" y="866"/>
      <point x="127" y="869" type="curve" smooth="yes"/>
      <point x="127" y="1593" type="line" smooth="yes"/>
      <point x="127" y="1597"/>
      <point x="124" y="1600"/>
      <point x="120" y="1600" type="curve" smooth="yes"/>
      <point x="42" y="1600" type="line" smooth="yes"/>
      <point x="38" y="1600"/>
      <point x="35" y="1597"/>
      <point x="35" y="1593" type="curve" smooth="yes"/>
    </contour>
    <contour>
      <point x="37" y="866" type="line"/>
      <point x="37" y="1131" type="line" smooth="yes"/>
      <point x="37" y="1135"/>
      <point x="40" y="1138"/>
      <point x="44" y="1138" type="curve" smooth="yes"/>
      <point x="118" y="1138" type="line" smooth="yes"/>
      <point x="122" y="1138"/>
      <point x="125" y="1135"/>
      <point x="125" y="1131" type="curve" smooth="yes"/>
      <point x="125" y="927" type="line" smooth="yes"/>
      <point x="125" y="924"/>
      <point x="125" y="922"/>
      <point x="124" y="919" type="curve" smooth="yes"/>
      <point x="108" y="872" type="line" smooth="yes"/>
      <point x="107" y="868"/>
      <point x="104" y="866"/>
      <point x="100" y="866" type="curve" smooth="yes"/>
    </contour>
    <contour>
      <point x="164" y="0" type="line"/>
      <point x="166" y="0" type="line"/>
      <point x="58" y="541" type="line"/>
      <point x="56" y="541" type="line"/>
    </contour>
  </outline>
</glyph>
<glyph name="S" format="2">
  <advance width="155"/>
  <unicode hex="0053"/>
  <anchor x="78" y="0" name="bottom"/>
  <anchor x="78" y="1600" name="top"/>
  <outline>
    <contour>
      <point x="36" y="0" type="curve" smooth="yes"/>
      <point x="81" y="0" type="line" smooth="yes"/>
      <point x="85" y="0"/>
      <point x="88" y="2"/>
      <point x="88" y="7" type="curve" smooth="yes"/>
      <point x="126" y="475" type="line" smooth="yes"/>
      <point x="126" y="478"/>
      <point x="126" y="480"/>
      <point x="126" y="483" type="curve" smooth="yes"/>
      <point x="126" y="1039" type="line" smooth="yes"/>
      <point x="126" y="1043"/>
      <point x="123" y="1046"/>
      <point x="119" y="1046" type="curve" smooth="yes"/>
      <point x="39" y="1046" type="line" smooth="yes"/>
      <point x="35" y="1046"/>
      <point x="32" y="1049"/>
      <point x="32" y="1053" type="curve" smooth="yes"/>
      <point x="32" y="1076" type="line" smooth="yes"/>
      <point x="32" y="1079"/>
      <point x="32" y="1080"/>
      <point x="32" y="1084" type="curve" smooth="yes"/>
      <point x="38" y="1157" type="line" smooth="yes"/>
      <point x="38" y="1162"/>
      <point x="41" y="1164"/>
      <point x="45" y="1164" type="curve" smooth="yes"/>
      <point x="107" y="1164" type="line" smooth="yes"/>
      <point x="111" y="1164"/>
      <point x="114" y="1161"/>
      <point x="114" y="1157" type="curve" smooth="yes"/>
      <point x="114" y="1094" type="line"/>
      <point x="116" y="1094" type="line"/>
      <point x="116" y="1593" type="line" smooth="yes"/>
      <point x="116" y="1597"/>
      <point x="113" y="1600"/>
      <point x="109" y="1600" type="curve" smooth="yes"/>
      <point x="77" y="1600" type="line" smooth="yes"/>
      <point x="73" y="1600"/>
      <point x="70" y="1598"/>
      <point x="70" y="1593" type="curve" smooth="yes"/>
      <point x="30" y="1085" type="line" smooth="yes"/>
      <point x="30" y="1082"/>
      <point x="30" y="1080"/>
      <point x="30" y="1077" type="curve" smooth="yes"/>
      <point x="30" y="565" type="line" smooth="yes"/>
      <point x="30" y="561"/>
      <point x="33" y="558"/>
      <point x="37" y="558" type="curve" smooth="yes"/>
      <point x="117" y="558" type="line" smooth="yes"/>
      <point x="121" y="558"/>
      <point x="124" y="555"/>
      <point x="124" y="551" type="curve" smooth="yes"/>
      <point x="124" y="485" type="line" smooth="yes"/>
      <point x="124" y="481"/>
      <point x="124" y="481"/>
      <point x="124" y="477" type="curve" smooth="yes"/>
      <point x="122" y="453" type="line" smooth="yes"/>
      <point x="122" y="448"/>
      <point x="119" y="446"/>
      <point x="115" y="446" type="curve" smooth="yes"/>
      <point x="38" y="446" type="line" smooth="yes"/>
      <point x="34" y="446"/>
      <point x="31" y="449"/>
      <point x="31" y="453" type="curve" smooth="yes"/>
      <point x="31" y="526" type="line"/>
      <point x="29" y="526" type="line"/>
      <point x="29" y="7" type="line" smooth="yes"/>
      <point x="29" y="3"/>
      <point x="32" y="0"/>
    </contour>
  </outline>
</glyph>
<glyph name="X" format="2">
  <advance width="156"/>
  <unicode hex="0058"/>
  <outline>
    <contour>
      <point x="67" y="579" type="line"/>
      <point x="117" y="579" type="line" smooth="yes"/>
      <point x="121" y="579"/>
      <point x="124" y="576"/>
      <point x="124" y="572" type="curve" smooth="yes"/>
      <point x="124" y="0" type="line"/>
      <point x="126" y="0" type="line"/>
      <point x="126" y="824" type="line" smooth="yes"/>
      <point x="126" y="828"/>
      <point x="123" y="831"/>
      <point x="119" y="831" type="curve" smooth="yes"/>
      <point x="81" y="831" type="line"/>
      <point x="121" y="969" type="line" smooth="yes"/>
      <point x="122" y="972"/>
      <point x="122" y="974"/>
      <point x="122" y="977" type="curve" smooth="yes"/>
      <point x="122" y="1600" type="line"/>
      <point x="120" y="1600" type="line"/>
      <point x="120" y="1134" type="line" smooth="yes"/>
      <point x="120" y="1131"/>
      <point x="120" y="1129"/>
      <point x="119" y="1126" type="curve" smooth="yes"/>
      <point x="79" y="987" type="line"/>
      <point x="37" y="987" type="line" smooth="yes"/>
      <point x="33" y="987"/>
      <point x="30" y="990"/>
      <point x="30" y="994" type="curve" smooth="yes"/>
      <point x="30" y="1600" type="line"/>
      <point x="28" y="1600" type="line"/>
      <point x="28" y="766" type="line" smooth="yes"/>
      <point x="28" y="762"/>
      <point x="31" y="759"/>
      <point x="35" y="759" type="curve" smooth="yes"/>
      <point x="65" y="759" type="line"/>
      <point x="19" y="618" type="line" smooth="yes"/>
      <point x="18" y="615"/>
      <point x="18" y="613"/>
      <point x="18" y="610" type="curve" smooth="yes"/>
      <point x="18" y="0" type="line"/>
      <point x="20" y="0" type="line"/>
      <point x="20" y="429" type="line" smooth="yes"/>
      <point x="20" y="432"/>
      <point x="20" y="434"/>
      <point x="21" y="437" type="curve" smooth="yes"/>
    </contour>
  </outline>
</glyph>
<glyph name="Z" format="2">
  <advance width="155"/>
  <unicode hex="005A"/>
  <anchor x="78" y="0" name="bottom"/>
  <anchor x="78" y="800" name="center"/>
  <anchor x="78" y="1600" name="top"/>
  <outline>
    <contour>
      <point x="36" y="0" type="curve" smooth="yes"/>
      <point x="118" y="0" type="line" smooth="yes"/>
      <point x="122" y="0"/>
      <point x="125" y="3"/>
      <point x="125" y="7" type="curve" smooth="yes"/>
      <point x="125" y="682" type="line"/>
      <point x="123" y="682" type="line"/>
      <point x="123" y="469" type="line" smooth="yes"/>
      <point x="123" y="465"/>
      <point x="120" y="462"/>
      <point x="116" y="462" type="curve" smooth="yes"/>
      <point x="38" y="462" type="line" smooth="yes"/>
      <point x="34" y="462"/>
      <point x="31" y="465"/>
      <point x="31" y="469" type="curve" smooth="yes"/>
      <point x="31" y="684" type="line" smooth="yes"/>
      <point x="31" y="689"/>
      <point x="32" y="693"/>
      <point x="33" y="698" type="curve" smooth="yes"/>
      <point x="119" y="1013" type="line" smooth="yes"/>
      <point x="120" y="1018"/>
      <point x="121" y="1022"/>
      <point x="121" y="1027" type="curve" smooth="yes"/>
      <point x="121" y="1593" type="line" smooth="yes"/>
      <point x="121" y="1597"/>
      <point x="118" y="1600"/>
      <point x="114" y="1600" type="curve" smooth="yes"/>
      <point x="39" y="1600" type="line" smooth="yes"/>
      <point x="35" y="1600"/>
      <point x="32" y="1597"/>
      <point x="32" y="1593" type="curve" smooth="yes"/>
      <point x="32" y="900" type="line"/>
      <point x="34" y="900" type="line"/>
      <point x="34" y="1131" type="line" smooth="yes"/>
      <point x="34" y="1135"/>
      <point x="37" y="1138"/>
      <point x="41" y="1138" type="curve" smooth="yes"/>
      <point x="112" y="1138" type="line" smooth="yes"/>
      <point x="116" y="1138"/>
      <point x="119" y="1135"/>
      <point x="119" y="1131" type="curve" smooth="yes"/>
      <point x="119" y="1027" type="line" smooth="yes"/>
      <point x="119" y="1022"/>
      <point x="118" y="1018"/>
      <point x="117" y="1013" type="curve" smooth="yes"/>
      <point x="31" y="701" type="line" smooth="yes"/>
      <point x="30" y="696"/>
      <point x="29" y="692"/>
      <point x="29" y="687" type="curve" smooth="yes"/>
      <point x="29" y="7" type="line" smooth="yes"/>
      <point x="29" y="3"/>
      <point x="32" y="0"/>
    </contour>
  </outline>
</glyph>
<glyph name="backslash" format="2">
  <advance width="72"/>
  <unicode hex="005C"/>
  <outline>
    <contour>
      <point x="63" y="0" type="line"/>
      <point x="65" y="0" type="line"/>
      <point x="9" y="1600" type="line"/>
      <point x="7" y="1600" type="line"/>
    </contour>
  </outline>
</glyph>
<glyph name="a" format="2">
  <advance width="154"/>
  <unicode hex="0061"/>
  <anchor x="79" y="0" name="bottom"/>
  <anchor x="139" y="10" name="ogonek"/>
  <anchor x="79" y="1200" name="top"/>
  <outline>
    <contour>
      <point x="38" y="0" type="curve" smooth="yes"/>
      <point x="80" y="0" type="line" smooth="yes"/>
      <point x="84" y="0"/>
      <point x="87" y="1"/>
      <point x="88" y="6" type="curve" smooth="yes"/>
      <point x="119" y="229" type="line"/>
      <point x="118" y="229" type="line"/>
      <point x="118" y="0" type="line"/>
      <point x="120" y="0" type="line"/>
      <point x="120" y="1193" type="line" smooth="yes"/>
      <point x="120" y="1197"/>
      <point x="117" y="1200"/>
      <point x="113" y="1200" type="curve" smooth="yes"/>
      <point x="78" y="1200" type="line" smooth="yes"/>
      <point x="74" y="1200"/>
      <point x="71" y="1199"/>
      <point x="70" y="1194" type="curve" smooth="yes"/>
      <point x="33" y="830" type="line" smooth="yes"/>
      <point x="31" y="814"/>
      <point x="31" y="809"/>
      <point x="31" y="796" type="curve" smooth="yes"/>
      <point x="31" y="7" type="line" smooth="yes"/>
      <point x="31" y="3"/>
      <point x="34" y="0"/>
    </contour>
    <contour>
      <point x="33" y="409" type="curve" smooth="yes"/>
      <point x="33" y="653" type="line" smooth="yes"/>
      <point x="33" y="665"/>
      <point x="30" y="668"/>
      <point x="35" y="682" type="curve" smooth="yes"/>
      <point x="72" y="792" type="line" smooth="yes"/>
      <point x="74" y="797"/>
      <point x="74" y="798"/>
      <point x="78" y="798" type="curve" smooth="yes"/>
      <point x="113" y="798" type="line" smooth="yes"/>
      <point x="117" y="798"/>
      <point x="118" y="795"/>
      <point x="118" y="791" type="curve" smooth="yes"/>
      <point x="118" y="496" type="line"/>
      <point x="86" y="408" type="line" smooth="yes"/>
      <point x="84" y="403"/>
      <point x="84" y="402"/>
      <point x="80" y="402" type="curve" smooth="yes"/>
      <point x="38" y="402" type="line" smooth="yes"/>
      <point x="34" y="402"/>
      <point x="33" y="405"/>
    </contour>
  </outline>
</glyph>
<glyph name="d" format="2">
  <advance width="160"/>
  <unicode hex="0064"/>
  <anchor x="80" y="0" name="bottom"/>
  <anchor x="120" y="1280" name="center"/>
  <anchor x="80" y="1200" name="top"/>
  <anchor x="140" y="1600" name="topright"/>
  <outline>
    <contour>
      <point x="43" y="0" type="curve" smooth="yes"/>
      <point x="84" y="0" type="line" smooth="yes"/>
      <point x="91" y="0"/>
      <point x="96" y="4"/>
      <point x="97" y="11" type="curve" smooth="yes"/>
      <point x="128" y="156" type="line" smooth="yes"/>
      <point x="129" y="162"/>
      <point x="129" y="165"/>
      <point x="129" y="170" type="curve" smooth="yes"/>
      <point x="129" y="1600" type="line"/>
      <point x="127" y="1600" type="line"/>
      <point x="127" y="1200" type="line"/>
      <point x="76" y="1200" type="line" smooth="yes"/>
      <point x="69" y="1200"/>
      <point x="64" y="1196"/>
      <point x="63" y="1189" type="curve" smooth="yes"/>
      <point x="32" y="1045" type="line" smooth="yes"/>
      <point x="31" y="1039"/>
      <point x="31" y="1036"/>
      <point x="31" y="1031" type="curve" smooth="yes"/>
      <point x="31" y="12" type="line" smooth="yes"/>
      <point x="31" y="5"/>
      <point x="36" y="0"/>
    </contour>
    <contour>
      <point x="33" y="414" type="curve" smooth="yes"/>
      <point x="33" y="687" type="line" smooth="yes"/>
      <point x="33" y="692"/>
      <point x="33" y="695"/>
      <point x="35" y="701" type="curve" smooth="yes"/>
      <point x="65" y="787" type="line" smooth="yes"/>
      <point x="67" y="794"/>
      <point x="71" y="798"/>
      <point x="78" y="798" type="curve" smooth="yes"/>
      <point x="127" y="798" type="line"/>
      <point x="127" y="530" type="line" smooth="yes"/>
      <point x="127" y="513"/>
      <point x="127" y="507"/>
      <point x="123" y="495" type="curve" smooth="yes"/>
      <point x="95" y="413" type="line" smooth="yes"/>
      <point x="93" y="406"/>
      <point x="89" y="402"/>
      <point x="82" y="402" type="curve" smooth="yes"/>
      <point x="45" y="402" type="line" smooth="yes"/>
      <point x="38" y="402"/>
      <point x="33" y="407"/>
    </contour>
  </outline>
</glyph>
<glyph name="e" format="2">
  <advance width="145"/>
  <unicode hex="0065"/>
  <anchor x="73" y="0" name="bottom"/>
  <anchor x="131" y="10" name="ogonek"/>
  <anchor x="73" y="1200" name="top"/>
  <outline>
    <contour>
      <point x="43" y="0" type="curve" smooth="yes"/>
      <point x="107" y="0" type="line"/>
      <point x="107" y="402" type="line"/>
      <point x="45" y="402" type="line" smooth="yes"/>
      <point x="38" y="402"/>
      <point x="33" y="407"/>
      <point x="33" y="414" type="curve" smooth="yes"/>
      <point x="33" y="686" type="line" smooth="yes"/>
      <point x="33" y="695"/>
      <point x="33" y="698"/>
      <point x="35" y="704" type="curve" smooth="yes"/>
      <point x="64" y="787" type="line" smooth="yes"/>
      <point x="66" y="794"/>
      <point x="70" y="798"/>
      <point x="77" y="798" type="curve" smooth="yes"/>
      <point x="95" y="798" type="line" smooth="yes"/>
      <point x="102" y="798"/>
      <point x="107" y="793"/>
      <point x="107" y="786" type="curve" smooth="yes"/>
      <point x="107" y="746" type="line" smooth="yes"/>
      <point x="107" y="739"/>
      <point x="102" y="734"/>
      <point x="95" y="734" type="curve" smooth="yes"/>
      <point x="32" y="734" type="line"/>
      <point x="32" y="432" type="line"/>
      <point x="97" y="432" type="line" smooth="yes"/>
      <point x="104" y="432"/>
      <point x="109" y="437"/>
      <point x="109" y="444" type="curve" smooth="yes"/>
      <point x="109" y="1188" type="line" smooth="yes"/>
      <point x="109" y="1195"/>
      <point x="104" y="1200"/>
      <point x="97" y="1200" type="curve" smooth="yes"/>
      <point x="76" y="1200" type="line" smooth="yes"/>
      <point x="69" y="1200"/>
      <point x="64" y="1196"/>
      <point x="63" y="1189" type="curve" smooth="yes"/>
      <point x="32" y="1045" type="line" smooth="yes"/>
      <point x="31" y="1039"/>
      <point x="31" y="1036"/>
      <point x="31" y="1031" type="curve" smooth="yes"/>
      <point x="31" y="12" type="line" smooth="yes"/>
      <point x="31" y="5"/>
      <point x="36" y="0"/>
    </contour>
  </outline>
</glyph>
<glyph name="f" format="2">
  <advance width="133"/>
  <unicode hex="0066"/>
  <outline>
    <contour>
      <point x="37" y="0" type="line"/>
      <point x="37" y="1424" type="line" smooth="yes"/>
      <point x="37" y="1429"/>
      <point x="37" y="1432"/>
      <point x="39" y="1438" type="curve" smooth="yes"/>
      <point x="88" y="1590" type="line" smooth="yes"/>
      <point x="90" y="1596"/>
      <point x="94" y="1600"/>
      <point x="101" y="1600" type="curve" smooth="yes"/>
      <point x="110" y="1600" type="line"/>
      <point x="110" y="1198" type="line"/>
      <point x="83" y="1198" type="line" smooth="yes"/>
      <point x="77" y="1198"/>
      <point x="72" y="1195"/>
      <point x="69" y="1189" type="curve" smooth="yes"/>
      <point x="43" y="1138" type="line" smooth="yes"/>
      <point x="41" y="1133"/>
      <point x="39" y="1128"/>
      <point x="39" y="1123" type="curve" smooth="yes"/>
      <point x="39" y="0" type="line"/>
    </contour>
    <contour>
      <point x="10" y="488" type="line"/>
      <point x="10" y="890" type="line"/>
      <point x="99" y="890" type="line"/>
      <point x="99" y="488" type="line"/>
    </contour>
  </outline>
</glyph>
<glyph name="g" format="2">
  <advance width="154"/>
  <unicode hex="0067"/>
  <anchor x="80" y="-300" name="bottom"/>
  <anchor x="80" y="1200" name="top"/>
  <outline>
    <contour>
      <point x="39" y="-300" type="line"/>
      <point x="78" y="-300" type="line" smooth="yes"/>
      <point x="85" y="-300"/>
      <point x="90" y="-296"/>
      <point x="91" y="-289" type="curve" smooth="yes"/>
      <point x="122" y="-144" type="line" smooth="yes"/>
      <point x="123" y="-138"/>
      <point x="123" y="-135"/>
      <point x="123" y="-130" type="curve" smooth="yes"/>
      <point x="123" y="1188" type="line" smooth="yes"/>
      <point x="123" y="1195"/>
      <point x="118" y="1200"/>
      <point x="111" y="1200" type="curve" smooth="yes"/>
      <point x="76" y="1200" type="line" smooth="yes"/>
      <point x="69" y="1200"/>
      <point x="64" y="1196"/>
      <point x="63" y="1189" type="curve" smooth="yes"/>
      <point x="32" y="1042" type="line" smooth="yes"/>
      <point x="31" y="1036"/>
      <point x="31" y="1033"/>
      <point x="31" y="1028" type="curve" smooth="yes"/>
      <point x="31" y="212" type="line" smooth="yes"/>
      <point x="31" y="205"/>
      <point x="36" y="200"/>
      <point x="43" y="200" type="curve" smooth="yes"/>
      <point x="63" y="200" type="line" smooth="yes"/>
      <point x="70" y="200"/>
      <point x="74" y="203"/>
      <point x="76" y="210" type="curve" smooth="yes"/>
      <point x="120" y="399" type="line"/>
      <point x="121" y="399" type="line"/>
      <point x="121" y="210" type="line" smooth="yes"/>
      <point x="121" y="205"/>
      <point x="122" y="202"/>
      <point x="119" y="194" type="curve" smooth="yes"/>
      <point x="91" y="113" type="line" smooth="yes"/>
      <point x="89" y="106"/>
      <point x="85" y="102"/>
      <point x="78" y="102" type="curve" smooth="yes"/>
      <point x="39" y="102" type="line"/>
    </contour>
    <contour>
      <point x="45" y="562" type="line" smooth="yes"/>
      <point x="38" y="562"/>
      <point x="33" y="567"/>
      <point x="33" y="574" type="curve" smooth="yes"/>
      <point x="33" y="677" type="line" smooth="yes"/>
      <point x="33" y="682"/>
      <point x="34" y="686"/>
      <point x="35" y="691" type="curve" smooth="yes"/>
      <point x="59" y="788" type="line" smooth="yes"/>
      <point x="60" y="794"/>
      <point x="65" y="798"/>
      <point x="72" y="798" type="curve" smooth="yes"/>
      <point x="109" y="798" type="line" smooth="yes"/>
      <point x="116" y="798"/>
      <point x="121" y="793"/>
      <point x="121" y="786" type="curve" smooth="yes"/>
      <point x="121" y="699" type="line"/>
      <point x="91" y="572" type="line" smooth="yes"/>
      <point x="90" y="566"/>
      <point x="85" y="562"/>
      <point x="78" y="562" type="curve" smooth="yes"/>
    </contour>
  </outline>
</glyph>
<glyph name="k" format="2">
  <advance width="150"/>
  <unicode hex="006B"/>
  <outline>
    <contour>
      <point x="32" y="409" type="line"/>
      <point x="106" y="409" type="line" smooth="yes"/>
      <point x="113" y="409"/>
      <point x="118" y="404"/>
      <point x="118" y="397" type="curve" smooth="yes"/>
      <point x="118" y="0" type="line"/>
      <point x="120" y="0" type="line"/>
      <point x="120" y="799" type="line" smooth="yes"/>
      <point x="120" y="806"/>
      <point x="115" y="811"/>
      <point x="108" y="811" type="curve" smooth="yes"/>
      <point x="61" y="811" type="line"/>
      <point x="62" y="811" type="line"/>
      <point x="122" y="1200" type="line"/>
      <point x="120" y="1200" type="line"/>
      <point x="60" y="811" type="line"/>
      <point x="32" y="811" type="line"/>
    </contour>
    <contour>
      <point x="31" y="0" type="line"/>
      <point x="33" y="0" type="line"/>
      <point x="33" y="1600" type="line"/>
      <point x="31" y="1600" type="line"/>
    </contour>
  </outline>
</glyph>
<glyph name="l" format="2">
  <advance width="64"/>
  <unicode hex="006C"/>
  <anchor x="32" y="0" name="bottom"/>
  <anchor x="32" y="850" name="center"/>
  <anchor x="32" y="1700" name="top"/>
  <anchor x="42" y="1700" name="topright"/>
  <outline>
    <contour>
      <point x="31" y="0" type="line"/>
      <point x="33" y="0" type="line"/>
      <point x="33" y="1600" type="line"/>
      <point x="31" y="1600" type="line"/>
    </contour>
  </outline>
</glyph>
<glyph name="n" format="2">
  <advance width="160"/>
  <unicode hex="006E"/>
  <anchor x="80" y="0" name="bottom"/>
  <anchor x="80" y="1200" name="top"/>
  <outline>
    <contour>
      <point x="31" y="0" type="line"/>
      <point x="33" y="0" type="line"/>
      <point x="33" y="683" type="line" smooth="yes"/>
      <point x="33" y="693"/>
      <point x="33" y="695"/>
      <point x="35" y="703" type="curve" smooth="yes"/>
      <point x="55" y="787" type="line" smooth="yes"/>
      <point x="57" y="794"/>
      <point x="60" y="798"/>
      <point x="67" y="798" type="curve" smooth="yes"/>
      <point x="114" y="798" type="line" smooth="yes"/>
      <point x="121" y="798"/>
      <point x="124" y="794"/>
      <point x="124" y="787" type="curve" smooth="yes"/>
      <point x="124" y="0" type="line"/>
      <point x="126" y="0" type="line"/>
      <point x="126" y="1188" type="line" smooth="yes"/>
      <point x="126" y="1195"/>
      <point x="121" y="1200"/>
      <point x="114" y="1200" type="curve" smooth="yes"/>
      <point x="80" y="1200" type="line" smooth="yes"/>
      <point x="73" y="1200"/>
      <point x="68" y="1197"/>
      <point x="67" y="1189" type="curve" smooth="yes"/>
      <point x="33" y="946" type="line" smooth="yes"/>
      <point x="32" y="940"/>
      <point x="31" y="934"/>
      <point x="31" y="923" type="curve" smooth="yes"/>
    </contour>
  </outline>
</glyph>
<glyph name="v" format="2">
  <advance width="127"/>
  <unicode hex="0076"/>
  <outline>
    <contour>
      <point x="44" y="0" type="curve" smooth="yes"/>
      <point x="62" y="0" type="line" smooth="yes"/>
      <point x="69" y="0"/>
      <point x="73" y="5"/>
      <point x="73" y="12" type="curve" smooth="yes"/>
      <point x="127" y="1200" type="line"/>
      <point x="125" y="1200" type="line"/>
      <point x="90" y="412" type="line" smooth="yes"/>
      <point x="90" y="405"/>
      <point x="87" y="402"/>
      <point x="80" y="402" type="curve" smooth="yes"/>
      <point x="45" y="402" type="line" smooth="yes"/>
      <point x="38" y="402"/>
      <point x="36" y="405"/>
      <point x="36" y="412" type="curve" smooth="yes"/>
      <point x="36" y="1200" type="line"/>
      <point x="34" y="1200" type="line"/>
      <point x="34" y="12" type="line" smooth="yes"/>
      <point x="34" y="5"/>
      <point x="37" y="0"/>
    </contour>
  </outline>
</glyph>
<glyph name="x" format="2">
  <advance width="152"/>
  <unicode hex="0078"/>
  <guideline x="-566" y="163" angle="0"/>
  <guideline x="-566" y="163" angle="0"/>
  <guideline x="-566" y="163" angle="0"/>
  <guideline x="164" y="630" angle="90"/>
  <guideline x="5" y="598" angle="90"/>
  <outline>
    <contour>
      <point x="71" y="409" type="line"/>
      <point x="118" y="409" type="line" smooth="yes"/>
      <point x="124" y="409"/>
      <point x="128" y="405"/>
      <point x="128" y="399" type="curve" smooth="yes"/>
      <point x="128" y="0" type="line"/>
      <point x="130" y="0" type="line"/>
      <point x="130" y="631" type="line" smooth="yes"/>
      <point x="130" y="637"/>
      <point x="126" y="641"/>
      <point x="120" y="641" type="curve" smooth="yes"/>
      <point x="85" y="641" type="line"/>
      <point x="124" y="747" type="line" smooth="yes"/>
      <point x="126" y="752"/>
      <point x="126" y="755"/>
      <point x="126" y="759" type="curve" smooth="yes"/>
      <point x="126" y="1200" type="line"/>
      <point x="124" y="1200" type="line"/>
      <point x="124" y="960" type="line" smooth="yes"/>
      <point x="124" y="956"/>
      <point x="123" y="953"/>
      <point x="122" y="948" type="curve" smooth="yes"/>
      <point x="83" y="811" type="line"/>
      <point x="44" y="811" type="line" smooth="yes"/>
      <point x="38" y="811"/>
      <point x="34" y="815"/>
      <point x="34" y="821" type="curve" smooth="yes"/>
      <point x="34" y="1200" type="line"/>
      <point x="32" y="1200" type="line"/>
      <point x="32" y="589" type="line" smooth="yes"/>
      <point x="32" y="583"/>
      <point x="36" y="579"/>
      <point x="42" y="579" type="curve" smooth="yes"/>
      <point x="69" y="579" type="line"/>
      <point x="24" y="470" type="line" smooth="yes"/>
      <point x="22" y="466"/>
      <point x="22" y="462"/>
      <point x="22" y="458" type="curve" smooth="yes"/>
      <point x="22" y="0" type="line"/>
      <point x="24" y="0" type="line"/>
      <point x="24" y="257" type="line" smooth="yes"/>
      <point x="24" y="261"/>
      <point x="25" y="265"/>
      <point x="26" y="269" type="curve" smooth="yes"/>
    </contour>
  </outline>
</glyph>
<glyph name="sterling" format="2">
  <advance width="189"/>
  <unicode hex="00A3"/>
  <outline>
    <contour>
      <point x="79" y="0" type="line"/>
      <point x="174" y="0" type="line"/>
      <point x="174" y="607" type="line"/>
      <point x="172" y="607" type="line"/>
      <point x="172" y="462" type="line"/>
      <point x="81" y="462" type="line"/>
      <point x="81" y="977" type="line"/>
      <point x="118" y="1138" type="line"/>
      <point x="145" y="1138" type="line"/>
      <point x="145" y="1600" type="line"/>
      <point x="116" y="1600" type="line"/>
      <point x="79" y="1437" type="line"/>
    </contour>
    <contour>
      <point x="29" y="660" type="line"/>
      <point x="134" y="660" type="line"/>
      <point x="134" y="891" type="line"/>
      <point x="29" y="891" type="line"/>
    </contour>
  </outline>
</glyph>
